<svg width="175" height="85" viewBox="0 0 175 85" fill="none" xmlns="http://www.w3.org/2000/svg">
<path d="M62.2109 15.4297H60.2188V63.0469C60.2188 65.1042 59.4115 66.8229 57.7969 68.2031C56.1042 69.6615 53.9688 70.3906 51.3906 70.3906C48.8125 70.3906 46.6901 69.6615 45.0234 68.2031C43.4089 66.8229 42.6016 65.1042 42.6016 63.0469V53.2031H49.0078V66.0938C49.0078 67.9948 49.8021 68.9453 51.3906 68.9453C53.0052 68.9453 53.8125 67.9948 53.8125 66.0938V15.4297H51.7812V13.9844H62.2109V15.4297ZM88.6328 70H78.2422V68.5547H80.2344L78.7891 52.3047H73.0469L71.4453 68.5547H73.4375V70H67.4219V68.5547H69.4141L75.0391 13.9844H81.4453L86.6406 68.5547H88.6328V70ZM78.7109 50.8984L76.0547 20.625L73.125 50.8984H78.7109ZM114.664 62.2266C114.664 64.4661 113.727 66.3932 111.852 68.0078C109.977 69.5964 107.711 70.3906 105.055 70.3906C102.424 70.3906 100.159 69.5964 98.2578 68.0078C96.3828 66.3932 95.4453 64.4661 95.4453 62.2266V21.7578C95.4453 19.5182 96.3828 17.6042 98.2578 16.0156C100.159 14.401 102.424 13.5938 105.055 13.5938C107.711 13.5938 109.977 14.401 111.852 16.0156C113.727 17.6042 114.664 19.5182 114.664 21.7578V30.7812H108.258V18.2422C108.258 17.3568 107.945 16.6016 107.32 15.9766C106.695 15.3516 105.94 15.0391 105.055 15.0391C104.169 15.0391 103.414 15.3516 102.789 15.9766C102.164 16.6016 101.852 17.3568 101.852 18.2422V65.7422C101.852 66.6276 102.164 67.3828 102.789 68.0078C103.414 68.6328 104.169 68.9453 105.055 68.9453C105.94 68.9453 106.695 68.6328 107.32 68.0078C107.945 67.3828 108.258 66.6276 108.258 65.7422V53.2031H114.664V62.2266Z" fill="black"/>
<line y1="-0.5" x2="175.873" y2="-0.5" transform="matrix(0.989352 0.14554 -0.533459 0.845826 0 29.9432)" stroke="black"/>
<line y1="-0.5" x2="121.323" y2="-0.5" transform="matrix(0.989094 0.147287 -0.538115 0.842871 29 29.9432)" stroke="black"/>
</svg>
