<svg width="63" height="49" viewBox="0 0 63 49" fill="none" xmlns="http://www.w3.org/2000/svg">
<path d="M18.1654 8.25781H16.9701V36.8281C16.9701 38.0625 16.4857 39.0938 15.517 39.9219C14.5013 40.7969 13.2201 41.2344 11.6732 41.2344C10.1263 41.2344 8.85291 40.7969 7.85291 39.9219C6.88416 39.0938 6.39978 38.0625 6.39978 36.8281V30.9219H10.2435V38.6562C10.2435 39.7969 10.7201 40.3672 11.6732 40.3672C12.642 40.3672 13.1263 39.7969 13.1263 38.6562V8.25781H11.9076V7.39062H18.1654V8.25781ZM34.0185 41H27.7842V40.1328H28.9795L28.1123 30.3828H24.667L23.706 40.1328H24.9013V41H21.292V40.1328H22.4873L25.8623 7.39062H29.706L32.8232 40.1328H34.0185V41ZM28.0654 29.5391L26.4717 11.375L24.7138 29.5391H28.0654ZM49.6373 36.3359C49.6373 37.6797 49.0748 38.8359 47.9498 39.8047C46.8248 40.7578 45.4654 41.2344 43.8717 41.2344C42.2935 41.2344 40.9342 40.7578 39.7935 39.8047C38.6685 38.8359 38.106 37.6797 38.106 36.3359V12.0547C38.106 10.7109 38.6685 9.5625 39.7935 8.60938C40.9342 7.64063 42.2935 7.15625 43.8717 7.15625C45.4654 7.15625 46.8248 7.64063 47.9498 8.60938C49.0748 9.5625 49.6373 10.7109 49.6373 12.0547V17.4688H45.7935V9.94531C45.7935 9.41406 45.606 8.96094 45.231 8.58594C44.856 8.21094 44.4029 8.02344 43.8717 8.02344C43.3404 8.02344 42.8873 8.21094 42.5123 8.58594C42.1373 8.96094 41.9498 9.41406 41.9498 9.94531V38.4453C41.9498 38.9766 42.1373 39.4297 42.5123 39.8047C42.8873 40.1797 43.3404 40.3672 43.8717 40.3672C44.4029 40.3672 44.856 40.1797 45.231 39.8047C45.606 39.4297 45.7935 38.9766 45.7935 38.4453V30.9219H49.6373V36.3359Z" fill="black"/>
<line x1="0.0588401" y1="21.9858" x2="55.0588" y2="28.5035" stroke="black"/>
<line x1="8.06202" y1="18.5039" x2="48.062" y2="23.5039" stroke="black"/>
</svg>
